PathFileType	4	(X/Y/Z)	RBDS05\RBDS05runT35.trc
DataRate	CameraRate	NumFrames	NumMarkers	Units	OrigDataRate	OrigDataStartFrame	OrigNumFrames
150.000000	150.000000	5	33	mm	150.000000	0	4500
Frame#	Time	L.ASIS			L.Heel.Bottom			L.Heel.Lateral			L.Heel.Top			L.Iliac.Crest			L.MT1			L.MT5			L.PSIS			L.Shank.Bottom.Lateral			L.Shank.Bottom.Medial			L.Shank.Top.Lateral			L.Shank.Top.Medial			L.Thigh.Bottom.Lateral			L.Thigh.Bottom.Medial			L.Thigh.Top.Lateral			L.Thigh.Top.Medial			R.ASIS			R.ASY			R.Heel.Bottom			R.Heel.Lateral			R.Heel.Top			R.Iliac.Crest			R.MT1			R.MT5			R.PSIS			R.Shank.Bottom.Lateral			R.Shank.Bottom.Medial			R.Shank.Top.Lateral			R.Shank.Top.Medial			R.Thigh.Bottom.Lateral			R.Thigh.Bottom.Medial			R.Thigh.Top.Lateral			R.Thigh.Top.Medial			
		X1	Y1	Z1	X2	Y2	Z2	X3	Y3	Z3	X4	Y4	Z4	X5	Y5	Z5	X6	Y6	Z6	X7	Y7	Z7	X8	Y8	Z8	X9	Y9	Z9	X10	Y10	Z10	X11	Y11	Z11	X12	Y12	Z12	X13	Y13	Z13	X14	Y14	Z14	X15	Y15	Z15	X16	Y16	Z16	X17	Y17	Z17	X18	Y18	Z18	X19	Y19	Z19	X20	Y20	Z20	X21	Y21	Z21	X22	Y22	Z22	X23	Y23	Z23	X24	Y24	Z24	X25	Y25	Z25	X26	Y26	Z26	X27	Y27	Z27	X28	Y28	Z28	X29	Y29	Z29	X30	Y30	Z30	X31	Y31	Z31	X32	Y32	Z32	X33	Y33	Z33	

1	0	2315.64225344234	916.617467129401	942.6935519176883	1962.369456438386	39.46686036128862	1042.518819233235	1994.493254656524	56.08724992568747	999.9454327178951	1976.005931865495	87.58820834729333	1044.054849899298	2254.254007546517	982.7331141559951	909.9615279474374	2168.602454783694	45.41738278488012	1080.392798132983	2139.338933909514	41.76078759845211	978.2737085925786	2170.577028094578	967.5974287812958	1023.4285694361	2082.457017825469	159.8310601680818	977.1168306793141	2043.752824430512	181.5754771862562	1002.293694471233	2112.357389285787	231.3853943955815	954.0628637124398	2074.019378104284	257.1923374533101	980.3147970798722	2238.408105669594	564.0869979675414	905.6911616925834	2175.605980742231	555.6571707833764	942.0348571272361	2214.831496120714	671.9699061486397	898.0202606376516	2159.996219675504	665.2937420013991	938.9189831491403	2332.917406223664	923.4791095329219	1168.16675815625	2069.27798426625	222.0079887178041	1121.812569685322	1942.785857424178	351.0548044459547	1116.628565192034	1966.924939721789	332.7283311537063	1154.821070519235	1990.0308355509	361.1159797247161	1116.407592510985	2282.747669181839	970.5156615140417	1204.635480116314	2038.171670094399	170.7762862332735	1076.949641223757	2024.228480007276	189.3045608718102	1181.479622583315	2178.592207598721	967.9225775047914	1112.655121267621	2101.555382902691	353.6096705516664	1175.839285060838	2085.456191401076	392.3236678056597	1140.943113712343	2168.426373484752	397.4407317277237	1190.446692483351	2152.413276507304	433.7377608203277	1154.564372734935	2375.674837598747	564.1068501278432	1225.879429335301	2315.323843462934	536.2800689216698	1194.935384853181	2325.332641404531	661.4057703701103	1235.238545508211	2265.242443161313	633.4977675296459	1210.145007125278	
2	0.006666666666666667	2315.113954306781	919.7317400296055	942.1869445282853	1940.060728084766	46.93363446703852	1042.392513749909	1972.99219426256	62.01260777571872	999.8329696765621	1955.849553476549	94.46614720636678	1043.79264126188	2257.518333586859	987.2892371402847	909.5952243391192	2145.100469268095	44.81086667673748	1080.199105001187	2115.770542364274	41.78324435524461	978.3545234965865	2170.992191028529	971.744160903437	1023.589986471359	2061.342840508254	166.3436897187372	976.7971095815876	2023.434019880691	187.9785624108456	1003.146252744607	2091.403225435494	237.9262134992845	954.1275385818921	2053.77018120303	263.6620705509202	981.4501129966685	2224.323797577087	568.8191072760218	906.2498124037637	2162.02212160944	563.0274993985598	943.5810526237252	2205.389489297416	677.3256950486472	898.8998330788021	2151.184362600073	672.9638840241624	940.8451105084383	2334.0966701403	928.5429957851552	1166.919950055089	2092.770577995188	213.1447532882474	1122.023569800045	1958.572847163814	333.2494093353894	1115.793834190928	1983.88805969404	316.7896573606981	1154.07492045319	2004.839355465725	346.3622744822791	1115.231954703343	2284.199867148201	975.8957180461051	1203.855168785538	2065.273080459672	159.8102125563593	1077.599928381224	2050.196472552951	178.3218357776517	1181.812890299528	2179.295020284632	972.6884350861063	1112.723858645104	2116.947734619415	346.3020009813951	1174.683650905008	2098.703180717301	383.6608743227959	1139.454407425684	2181.128471075221	393.9132864354912	1188.736540185252	2163.019711507578	428.8834637901404	1152.585126011745	2383.606014419564	572.3471879140898	1223.52064607486	2323.462851646935	543.4991925023435	1193.062077396951	2331.141961431565	668.311237797733	1234.543888036231	2271.614758408916	639.3032585422768	1209.862295575632	
3	0.01333333333333333	2314.636832998068	922.8734775521808	941.6513659516577	1918.111282463673	54.81449461797317	1042.244421016477	1951.832471158394	68.2581453307283	999.7000688354887	1936.102634499319	101.663951810436	1043.51265830042	2260.734897606578	991.8302863087843	909.2514739442469	2121.764371716301	44.26235009730075	1080.011892316221	2092.367858999464	41.90438832963079	978.4029208533112	2171.445972359804	975.9269801176932	1023.738161903525	2040.58599028432	173.0299616967451	976.4768057989361	2003.494304097687	194.5195284038541	1004.019076142672	2070.793343429189	244.6601841532906	954.239891521602	2033.898160353024	270.2831453992414	982.6673600653068	2210.47159347203	573.7113652963229	906.8675205872062	2148.722276486961	570.5329665220686	945.2187365768505	2196.127599998788	682.7998805440411	899.8054664880193	2142.602559604716	680.7190295922268	942.8115992640589	2335.272990309751	933.5949412139529	1165.655003546821	2116.449451041587	204.361983502889	1122.233458808704	1974.730017057014	315.3318631600408	1114.924904627321	2001.161286253664	300.7668104498387	1153.304617186598	2019.952851437121	331.4739079139115	1114.057163206645	2285.624762082192	981.2887406162353	1203.07547002206	2092.61503891249	149.0060238442611	1078.250890722046	2076.383568381773	167.4542235336848	1182.136704476964	2180.040659513395	977.4854886209316	1112.763474040816	2132.453431814926	338.9121467251029	1173.523515401931	2112.087865913675	374.8635340660456	1137.960303772652	2193.836317078063	390.2675481772681	1187.034211767268	2173.663986274053	423.8636496959586	1150.612754609839	2391.317421637492	580.5048513337779	1221.17356413487	2331.362189482963	550.6534765294257	1191.260095255321	2336.82401339018	675.1866974482798	1233.794828777353	2277.822832901169	645.1090315242762	1209.566050950888	
4	0.02	2314.25926822819	926.0689731899157	941.0676456749972	1896.866873748434	63.48157172096759	1042.08650767176	1931.32286318157	75.11511708565044	999.5517253491703	1917.151103285474	109.462580279748	1043.216765089266	2263.858902559063	996.3512664730116	908.9516585115783	2098.7359649538	43.81928790265369	1079.822698317499	2069.251923583642	42.21994908743225	978.389884686677	2171.976891250627	980.186001931121	1023.857938014168	2020.504291717192	180.0313300525062	976.1601197511292	1984.270224930807	201.3087174448719	1004.935533175166	2050.83410873782	251.7476295342895	954.4432538898276	2014.737580855777	277.1802702065837	984.0398896688889	2197.068695679114	578.9050989754238	907.5953431210251	2135.963795748662	578.2944882247722	947.0185615722587	2187.214905838866	688.4951035391131	900.7530376764781	2134.458056540574	688.6346384129032	944.8400312062496	2336.4419664287	938.6233810655528	1164.365446593482	2140.532362615412	195.7103616726245	1122.44460306952	1991.623781108574	297.1717105423331	1113.995247460711	2019.054397350187	284.558003381412	1152.492632385071	2035.679983439729	316.3081743567102	1112.87757793021	2286.993922997759	986.7030384798172	1202.301420103566	2120.478912015617	138.4794130682695	1078.916160289479	2103.032085303753	156.77849220451	1182.454919228733	2180.869843910245	982.3438846953679	1112.748147419054	2148.206179118095	331.3408795468649	1172.353749154949	2125.763057852132	365.7843193224277	1136.45593583765	2206.579095255093	386.3750716349358	1185.349163966889	2184.399137897164	418.5062737947641	1148.657344127144	2398.590068196903	588.49445608285	1218.841667629707	2338.784464697929	557.6748263484961	1189.581722244001	2342.240843804207	681.9960492706883	1232.933701554785	2283.698126650688	650.9081412542471	1209.225207137028	
5	0.02666666666666667	2314.023775062855	929.3306675312471	940.4291748131357	1876.638648126068	73.21622373178606	1041.94263151215	1911.730412378767	82.809186103702	999.4016402017446	1899.328742771388	118.0701273168673	1042.913693123205	2266.837739328285	1000.847495833327	908.7137890772198	2076.151620561402	43.53830564990231	1079.619379929013	2046.535390248665	42.82095470376234	978.2948416270066	2172.617753849911	984.5458709180225	1023.936057915062	2001.371308594326	187.4377461158886	975.8536206097717	1966.045844006919	208.4157655849587	1005.910915841706	2031.793706616392	259.2904250285416	954.7693925667819	1996.573818145739	284.4319776620575	985.615853422081	2184.31421842109	584.4909519777665	908.4696082824925	2123.969509528441	586.3817410996701	949.0224655490535	2178.802904300562	694.4719151234308	901.7508597067058	2126.927095868786	696.7458928376875	946.9371922122481	2337.596133431897	943.6068304356835	1163.056443057814	2165.182108287794	187.2438542442849	1122.660881099101	2009.546897578438	278.6840514099745	1112.99270849036	2037.813181860927	268.0985082919747	1151.631943527424	2052.266097019108	300.7701773024536	1111.694390819056	2288.280948717802	992.129352788921	1201.540624030084	2149.077342921852	128.3417667059232	1079.607284402425	2130.322240236078	146.3685905370998	1182.773554612664	2181.814513578316	987.273613414434	1112.658916530197	2164.307644740024	323.5139124566369	1171.175948575288	2139.848674785399	356.3126046898602	1134.945051057163	2219.376246530345	382.1312838877178	1183.696098727466	2195.265829600287	412.6734814414717	1146.734202895458	2405.228284346557	596.2216005624255	1216.527391805529	2345.517846408203	564.4849217727027	1188.064486341992	2347.262030032441	688.6874321616222	1231.911638590535	2289.0875134586	656.6756536322662	1208.802845320579	
